<svg width="17" height="18" viewBox="0 0 17 18" fill="none" xmlns="http://www.w3.org/2000/svg">
<path fill-rule="evenodd" clip-rule="evenodd" d="M11.9632 13.7236C14.2207 13.4598 16.1834 12.0712 16.4317 10.7989C16.8145 8.82318 16.7893 5.99334 16.7885 5.91318L16.7885 5.91145C16.7885 2.00927 14.2284 0.861117 14.2284 0.861117C12.9406 0.271523 10.7297 0.0155156 8.4256 0H8.3713C6.07499 0.0232734 3.85625 0.271523 2.56846 0.861117C2.56846 0.861117 0.0083789 2.00927 0.0083789 5.91145C0.0083789 6.1673 0.00646485 6.43782 0.00446639 6.72026C-0.000503902 7.42273 -0.0059963 8.19899 0.016136 9.00682C0.10923 12.8237 0.714339 16.594 4.24414 17.5249C5.87328 17.9516 7.26969 18.0447 8.39457 17.9826C10.4349 17.8662 11.583 17.2534 11.583 17.2534L11.5132 15.7716C11.5132 15.7716 10.0547 16.2293 8.41785 16.175C6.79646 16.1207 5.08199 16.0044 4.81822 14.0106C4.79495 13.8322 4.77943 13.646 4.77943 13.452C4.77943 13.452 6.37754 13.8399 8.39457 13.933C9.62806 13.9951 10.784 13.8632 11.9632 13.7236ZM13.7708 10.9396V6.21475C13.7708 5.24495 13.5226 4.47687 13.0416 3.9105C12.5296 3.34414 11.8624 3.04932 11.0322 3.04932C10.0702 3.04932 9.34875 3.41396 8.86775 4.15101L8.40227 4.93461L7.93678 4.15101C7.45578 3.41396 6.73428 3.04932 5.77228 3.04932C4.94993 3.04932 4.28274 3.34414 3.77071 3.9105C3.28195 4.47687 3.03369 5.24495 3.03369 6.21475V10.9396H4.90338V6.34665C4.90338 5.37684 5.3068 4.88806 6.1214 4.88806C7.02133 4.88806 7.4713 5.4777 7.4713 6.62595V9.13968H9.33323V6.62595C9.33323 5.46994 9.7832 4.88806 10.6831 4.88806C11.4977 4.88806 11.9011 5.37684 11.9011 6.34665V10.9396H13.7708Z" fill="#E6DDFF"/>
</svg>
