<svg width="16" height="18" viewBox="0 0 16 18" fill="none" xmlns="http://www.w3.org/2000/svg">
<path d="M12.0533 8.34232C11.976 8.30525 11.8966 8.26924 11.8171 8.23535C11.6784 5.67557 10.2794 4.20981 7.93034 4.19499C7.91975 4.19499 7.90915 4.19499 7.89856 4.19499C6.49318 4.19499 5.32502 4.79442 4.60591 5.88633L5.89798 6.77277C6.43493 5.95728 7.27795 5.7836 7.89962 5.7836C7.90704 5.7836 7.91445 5.7836 7.92081 5.7836C8.69393 5.78889 9.27748 6.01341 9.65557 6.45187C9.93092 6.77065 10.1141 7.21229 10.2052 7.76936C9.52 7.65286 8.7776 7.61685 7.98541 7.66239C5.75182 7.79054 4.31678 9.0932 4.41316 10.9032C4.46187 11.8214 4.91939 12.6114 5.70099 13.1272C6.36185 13.5635 7.21228 13.7764 8.09661 13.7288C9.26477 13.6652 10.1809 13.2193 10.8195 12.4039C11.3045 11.7854 11.6117 10.9836 11.7472 9.97329C12.3043 10.309 12.7163 10.7517 12.944 11.2823C13.3316 12.1857 13.3538 13.6695 12.1423 14.88C11.0811 15.9401 9.80595 16.3987 7.87738 16.4124C5.73912 16.3966 4.12191 15.7113 3.07025 14.3737C2.08531 13.1219 1.57696 11.3141 1.5579 9C1.57696 6.68593 2.08531 4.87809 3.07025 3.62626C4.12191 2.28972 5.73912 1.60344 7.87738 1.58755C10.0315 1.60344 11.6763 2.29289 12.7682 3.6358C13.303 4.29454 13.7076 5.12273 13.9734 6.08861L15.4868 5.6851C15.1638 4.49682 14.6565 3.47164 13.966 2.62226C12.5659 0.900212 10.5198 0.0180042 7.88162 0H7.87103C5.23923 0.0180042 3.21535 0.904448 1.8555 2.63285C0.646035 4.17063 0.0211815 6.31101 0 8.99364V9V9.00635C0.0211815 11.689 0.644976 13.8294 1.8555 15.3671C3.21535 17.0956 5.23923 17.9809 7.87103 18H7.88162C10.2222 17.9841 11.8711 17.3709 13.2299 16.0132C15.0081 14.2371 14.9541 12.0109 14.3684 10.6437C13.9512 9.66404 13.1494 8.86867 12.0533 8.34232ZM8.01294 12.1412C7.03436 12.1963 6.01765 11.7568 5.96682 10.8163C5.92975 10.1184 6.46352 9.33996 8.07225 9.24782C8.25653 9.23723 8.43763 9.23194 8.61556 9.23194C9.20016 9.23194 9.74665 9.28913 10.2444 9.39715C10.0591 11.7123 8.97141 12.0883 8.01294 12.1412Z" fill="#E6DDFF"/>
</svg>
