<svg width="521" height="131" viewBox="0 0 521 131" fill="none" xmlns="http://www.w3.org/2000/svg">
<path d="M10.5682 105V17.7273H41.0795C47.1591 17.7273 52.1733 18.7784 56.1222 20.8807C60.071 22.9545 63.0114 25.7528 64.9432 29.2756C66.875 32.7699 67.8409 36.6477 67.8409 40.9091C67.8409 44.6591 67.1733 47.7557 65.8381 50.1989C64.5313 52.642 62.7983 54.5739 60.6392 55.9943C58.5085 57.4148 56.1932 58.4659 53.6932 59.1477V60C56.3636 60.1705 59.0483 61.108 61.7472 62.8125C64.446 64.517 66.7045 66.9602 68.5227 70.142C70.3409 73.3239 71.25 77.2159 71.25 81.8182C71.25 86.1932 70.2557 90.1278 68.267 93.6222C66.2784 97.1165 63.1392 99.8864 58.8494 101.932C54.5597 103.977 48.9773 105 42.1023 105H10.5682ZM21.1364 95.625H42.1023C49.0057 95.625 53.9063 94.2898 56.804 91.6193C59.7301 88.9205 61.1932 85.6534 61.1932 81.8182C61.1932 78.8636 60.4403 76.1364 58.9347 73.6364C57.429 71.108 55.2841 69.0909 52.5 67.5852C49.7159 66.0511 46.4205 65.2841 42.6136 65.2841H21.1364V95.625ZM21.1364 56.0795H40.7386C43.9205 56.0795 46.7898 55.4545 49.3466 54.2045C51.9318 52.9545 53.9773 51.1932 55.483 48.9205C57.017 46.6477 57.7841 43.9773 57.7841 40.9091C57.7841 37.0739 56.4489 33.821 53.7784 31.1506C51.108 28.4517 46.875 27.1023 41.0795 27.1023H21.1364V56.0795ZM88.9082 17.7273V105H78.8514V17.7273H88.9082ZM125.519 106.364C119.61 106.364 114.425 104.957 109.965 102.145C105.533 99.3324 102.067 95.3977 99.5672 90.3409C97.0956 85.2841 95.8598 79.375 95.8598 72.6136C95.8598 65.7955 97.0956 59.8437 99.5672 54.7585C102.067 49.6733 105.533 45.7244 109.965 42.9119C114.425 40.0994 119.61 38.6932 125.519 38.6932C131.428 38.6932 136.598 40.0994 141.03 42.9119C145.49 45.7244 148.956 49.6733 151.428 54.7585C153.928 59.8437 155.178 65.7955 155.178 72.6136C155.178 79.375 153.928 85.2841 151.428 90.3409C148.956 95.3977 145.49 99.3324 141.03 102.145C136.598 104.957 131.428 106.364 125.519 106.364ZM125.519 97.3295C130.008 97.3295 133.701 96.179 136.598 93.8778C139.496 91.5767 141.641 88.5511 143.033 84.8011C144.425 81.0511 145.121 76.9886 145.121 72.6136C145.121 68.2386 144.425 64.1619 143.033 60.3835C141.641 56.6051 139.496 53.5511 136.598 51.2216C133.701 48.892 130.008 47.7273 125.519 47.7273C121.03 47.7273 117.337 48.892 114.439 51.2216C111.542 53.5511 109.397 56.6051 108.005 60.3835C106.613 64.1619 105.917 68.2386 105.917 72.6136C105.917 76.9886 106.613 81.0511 108.005 84.8011C109.397 88.5511 111.542 91.5767 114.439 93.8778C117.337 96.179 121.03 97.3295 125.519 97.3295ZM188.55 130.909C183.692 130.909 179.516 130.284 176.022 129.034C172.527 127.812 169.615 126.193 167.286 124.176C164.985 122.188 163.152 120.057 161.789 117.784L169.8 112.159C170.709 113.352 171.86 114.716 173.252 116.25C174.644 117.812 176.547 119.162 178.962 120.298C181.405 121.463 184.601 122.045 188.55 122.045C193.834 122.045 198.195 120.767 201.632 118.21C205.07 115.653 206.789 111.648 206.789 106.193V92.8977H205.936C205.198 94.0909 204.147 95.5682 202.783 97.3295C201.448 99.0625 199.516 100.611 196.988 101.974C194.488 103.31 191.107 103.977 186.845 103.977C181.561 103.977 176.817 102.727 172.613 100.227C168.436 97.7273 165.127 94.0909 162.684 89.3182C160.269 84.5455 159.061 78.75 159.061 71.9318C159.061 65.2273 160.24 59.3892 162.598 54.4176C164.956 49.4176 168.238 45.554 172.442 42.8267C176.647 40.071 181.505 38.6932 187.016 38.6932C191.277 38.6932 194.658 39.4034 197.158 40.8239C199.686 42.2159 201.618 43.8068 202.953 45.5966C204.317 47.358 205.368 48.8068 206.107 49.9432H207.13V39.5455H216.845V106.875C216.845 112.5 215.567 117.074 213.01 120.597C210.482 124.148 207.073 126.747 202.783 128.395C198.522 130.071 193.777 130.909 188.55 130.909ZM188.209 94.9432C192.243 94.9432 195.652 94.0199 198.436 92.1733C201.22 90.3267 203.337 87.6705 204.786 84.2045C206.235 80.7386 206.959 76.5909 206.959 71.7614C206.959 67.0455 206.249 62.8835 204.828 59.2756C203.408 55.6676 201.306 52.8409 198.522 50.7955C195.738 48.75 192.3 47.7273 188.209 47.7273C183.948 47.7273 180.397 48.8068 177.556 50.9659C174.743 53.125 172.627 56.0227 171.206 59.6591C169.814 63.2955 169.118 67.3295 169.118 71.7614C169.118 76.3068 169.828 80.3267 171.249 83.821C172.698 87.2869 174.828 90.0142 177.641 92.0028C180.482 93.9631 184.005 94.9432 188.209 94.9432ZM268.105 78.2386V39.5455H278.161V105H268.105V93.9205H267.423C265.889 97.2443 263.502 100.071 260.264 102.401C257.025 104.702 252.934 105.852 247.991 105.852C243.9 105.852 240.264 104.957 237.082 103.168C233.9 101.349 231.4 98.6222 229.582 94.9858C227.764 91.321 226.855 86.7045 226.855 81.1364V39.5455H236.911V80.4545C236.911 85.2273 238.247 89.0341 240.917 91.875C243.616 94.7159 247.053 96.1364 251.23 96.1364C253.73 96.1364 256.272 95.4972 258.857 94.2188C261.471 92.9403 263.659 90.9801 265.42 88.3381C267.21 85.696 268.105 82.3295 268.105 78.2386ZM293.124 122.727V13.6364H318.352V21.9886H302.67V114.375H318.352V122.727H293.124ZM420.84 13.6364V122.727H395.613V114.375H411.295V21.9886H395.613V13.6364H420.84ZM462.394 106.364C456.485 106.364 451.3 104.957 446.84 102.145C442.408 99.3324 438.942 95.3977 436.442 90.3409C433.971 85.2841 432.735 79.375 432.735 72.6136C432.735 65.7955 433.971 59.8437 436.442 54.7585C438.942 49.6733 442.408 45.7244 446.84 42.9119C451.3 40.0994 456.485 38.6932 462.394 38.6932C468.303 38.6932 473.473 40.0994 477.905 42.9119C482.365 45.7244 485.831 49.6733 488.303 54.7585C490.803 59.8437 492.053 65.7955 492.053 72.6136C492.053 79.375 490.803 85.2841 488.303 90.3409C485.831 95.3977 482.365 99.3324 477.905 102.145C473.473 104.957 468.303 106.364 462.394 106.364ZM462.394 97.3295C466.883 97.3295 470.576 96.179 473.473 93.8778C476.371 91.5767 478.516 88.5511 479.908 84.8011C481.3 81.0511 481.996 76.9886 481.996 72.6136C481.996 68.2386 481.3 64.1619 479.908 60.3835C478.516 56.6051 476.371 53.5511 473.473 51.2216C470.576 48.892 466.883 47.7273 462.394 47.7273C457.905 47.7273 454.212 48.892 451.314 51.2216C448.417 53.5511 446.272 56.6051 444.88 60.3835C443.488 64.1619 442.792 68.2386 442.792 72.6136C442.792 76.9886 443.488 81.0511 444.88 84.8011C446.272 88.5511 448.417 91.5767 451.314 93.8778C454.212 96.179 457.905 97.3295 462.394 97.3295Z" fill="#C89DFF"/>
<path d="M324.66 65.7168C324.66 65.2871 324.66 64.6068 324.66 63.6758C324.732 62.6732 324.768 61.6348 324.768 60.5605C324.839 59.4863 324.875 58.4479 324.875 57.4453C324.947 56.4427 324.982 55.7266 324.982 55.2969C325.77 54.151 326.773 53.2201 327.99 52.5039C329.279 51.7878 330.568 51.2148 331.857 50.7852C332.072 54.6523 332.681 58.7702 333.684 63.1387C334.686 67.5072 335.76 71.9115 336.906 76.3516C338.052 80.7201 339.055 85.0527 339.914 89.3496C340.845 93.6465 341.311 97.6569 341.311 101.381C341.311 104.604 339.663 106.215 336.369 106.215C334.364 106.215 332.681 105.391 331.32 103.744C329.96 102.097 328.85 100.02 327.99 97.5137C327.202 94.9355 326.558 92.1068 326.057 89.0273C325.555 85.8763 325.197 82.7969 324.982 79.7891C324.839 76.7812 324.732 74.0241 324.66 71.5176C324.66 69.0111 324.66 67.0775 324.66 65.7168ZM326.164 25.4336C327.525 26.0065 328.671 26.9375 329.602 28.2266C330.533 29.5156 330.926 30.6973 330.783 31.7715C330.712 32.7741 329.924 33.4902 328.42 33.9199C326.916 34.278 324.41 33.8483 320.9 32.6309C320.9 30.6973 321.258 29.0143 321.975 27.582C322.762 26.1497 324.159 25.4336 326.164 25.4336ZM335.437 51.8594C335.437 51.6445 335.473 51.4655 335.544 51.3223C335.544 51.179 335.58 51 335.652 50.7852C335.938 50.4271 336.368 49.9616 336.941 49.3887C337.514 48.8158 337.872 48.5293 338.015 48.5293H359.607C359.607 47.7415 359.499 46.4883 359.284 44.7695C359.07 43.0508 358.855 41.153 358.64 39.0762C358.497 36.9993 358.461 34.8509 358.532 32.6309C358.604 30.3392 358.89 28.2982 359.392 26.5078C359.965 24.6458 360.824 23.1419 361.97 21.9961C363.187 20.7786 364.87 20.1699 367.019 20.1699C367.019 27.403 367.52 33.2038 368.523 37.5723C369.525 41.9408 370.85 45.3066 372.497 47.6699C374.216 50.0332 376.15 51.5729 378.298 52.2891C380.446 53.0052 382.631 53.3275 384.851 53.2559C387.142 53.1126 389.362 52.7546 391.511 52.1816C393.659 51.6087 395.557 51.2148 397.204 51C398.923 50.7852 400.284 50.9642 401.286 51.5371C402.289 52.0384 402.79 53.2917 402.79 55.2969C402.79 56.8008 402.432 57.875 401.716 58.5195C401.071 59.1641 399.782 59.6654 397.849 60.0234C397.276 60.0951 396.309 60.2383 394.948 60.4531C393.659 60.5964 392.191 60.7396 390.544 60.8828C388.897 61.026 387.142 61.2051 385.28 61.4199C383.418 61.5632 381.664 61.7064 380.017 61.8496C378.37 61.9928 376.866 62.1003 375.505 62.1719C374.144 62.1719 373.142 62.1719 372.497 62.1719C372.497 62.5299 372.461 63.1387 372.39 63.998C372.318 64.8574 372.282 65.4303 372.282 65.7168C372.282 68.8678 372.784 71.9473 373.786 74.9551C374.789 77.8913 375.863 80.8275 377.009 83.7637C378.226 86.6999 379.336 89.6361 380.339 92.5723C381.342 95.5085 381.843 98.5521 381.843 101.703C381.843 102.276 381.771 102.885 381.628 103.529C381.557 104.102 381.342 104.639 380.984 105.141C380.697 105.57 380.232 105.893 379.587 106.107C379.014 106.394 378.191 106.358 377.116 106C374.395 105.284 372.354 103.744 370.993 101.381C369.704 99.0176 368.737 96.2246 368.093 93.002C367.448 89.7077 367.019 86.2344 366.804 82.582C366.589 78.9297 366.231 75.528 365.73 72.377C365.3 69.1543 364.584 66.4329 363.581 64.2129C362.579 61.9212 360.967 60.5247 358.747 60.0234L338.015 55.2969C337.728 55.2969 337.299 55.0104 336.726 54.4375C336.153 53.793 335.795 53.3275 335.652 53.041C335.58 52.8978 335.544 52.7188 335.544 52.5039C335.473 52.3607 335.437 52.1458 335.437 51.8594Z" fill="#AB58CC"/>
</svg>
